<?xml version="1.0" encoding="utf-8"?><svg xmlns="http://www.w3.org/2000/svg" xmlns:xlink="http://www.w3.org/1999/xlink"><symbol fill="none" viewBox="0 0 68 68" id="about-icon-large-1" xmlns="http://www.w3.org/2000/svg"><path d="M40.562 16.688l4.66 3.447c.524.387.259 1.246-.404 1.25l-1.462.009h-.005a.686.686 0 01-.685-.68 1.992 1.992 0 00-3.984.025 4.677 4.677 0 003.403 4.463v.097a1.992 1.992 0 003.984 0v-.1a4.64 4.64 0 002.068-1.218 4.64 4.64 0 001.346-3.315v-.013a4.691 4.691 0 00-1.892-3.721l-4.66-3.447c-.528-.392-.25-1.236.409-1.236h1.464c.378 0 .686.308.686.685a1.992 1.992 0 003.984 0 4.677 4.677 0 00-3.405-4.493v-.096a1.992 1.992 0 00-3.985 0v.093a4.677 4.677 0 00-3.414 4.496c0 1.474.707 2.877 1.892 3.754z" fill="#245462"/><path d="M44.077 33.643c9.278 0 16.826-7.546 16.826-16.821C60.903 7.546 53.355 0 44.077 0S27.25 7.546 27.25 16.822c0 9.275 7.548 16.821 16.826 16.821zm0-29.659c7.08 0 12.841 5.76 12.841 12.838 0 7.078-5.76 12.837-12.841 12.837-7.081 0-12.842-5.759-12.842-12.837 0-7.079 5.76-12.838 12.842-12.838zM66.63 38.142c-2.155-2.774-6.044-3.296-8.844-1.353l-7.58 5.07a6.247 6.247 0 00-5.503-3.298h-5.406a14.865 14.865 0 00-10.132-4.013c-2.82 0-5.565.797-7.935 2.305a14.835 14.835 0 00-5.083 5.45l-1.015.621-.263-.769a1.992 1.992 0 00-2.53-1.24L1.35 44.67A1.993 1.993 0 00.107 47.2l6.65 19.452a1.992 1.992 0 002.529 1.24l10.991-3.755c.982-.336 1.625-1.407 1.22-2.594l17.44-.54a22.649 22.649 0 0013.174-4.219l13.153-9.355a6.497 6.497 0 001.365-9.287zM9.884 63.478L4.522 47.796l7.221-2.467 5.362 15.682-7.221 2.467zm53.071-19.296l-13.153 9.355a18.687 18.687 0 01-10.957 3.482l-18.696.58-3.697-10.812 2.247-1.374.001-.001c.331-.203.59-.5.748-.821a10.755 10.755 0 019.717-6.059c3.007 0 5.8 1.204 7.863 3.39.38.402.927.623 1.449.623h6.227a2.257 2.257 0 110 4.512h-11.24a1.992 1.992 0 000 3.985h11.24c1.668 0 3.236-.65 4.412-1.828a6.2 6.2 0 001.654-2.938l9.246-6.186.033-.023a2.518 2.518 0 012.906 4.115z" fill="#245462"/></symbol><symbol fill="none" viewBox="0 0 68 51" id="about-icon-large-2" xmlns="http://www.w3.org/2000/svg"><path d="M67.9 23.953C66.896 13.88 58.372 5.988 48.04 5.988h-1.997V0H32.07v11.976H5.988v11.977H0v20.626h8.237c.889 3.44 4.018 5.989 7.732 5.989 3.713 0 6.843-2.549 7.732-5.989h22.595c.888 3.44 4.018 5.989 7.732 5.989 3.713 0 6.843-2.549 7.731-5.989H68V23.953h-.1zM48.04 9.98c8.128 0 14.858 6.107 15.844 13.973h-17.84V9.98h1.995zM36.062 3.992h5.988v19.961h-5.988V3.993zM9.98 15.97h22.09v7.984H9.98v-7.984zm5.989 30.606a3.997 3.997 0 01-3.992-3.992 3.997 3.997 0 013.992-3.992 3.997 3.997 0 013.992 3.992 3.997 3.997 0 01-3.992 3.992zm7.732-5.988c-.89-3.44-4.019-5.988-7.732-5.988-3.714 0-6.843 2.548-7.732 5.988H3.992V27.945h38.059v12.642H23.7zm30.326 5.988a3.997 3.997 0 01-3.992-3.992 3.997 3.997 0 013.992-3.992 3.997 3.997 0 013.993 3.992 3.997 3.997 0 01-3.993 3.992zm9.98-5.988H61.76c-.889-3.44-4.018-5.988-7.732-5.988-3.713 0-6.843 2.548-7.731 5.988h-.253V27.945h17.965v12.642z" fill="#245462"/></symbol><symbol fill="none" viewBox="0 0 70 70" id="about-icon-large-3" xmlns="http://www.w3.org/2000/svg"><path d="M61.745 14.007h2.1a1.327 1.327 0 000-2.654h-5.043c-.733 0-1.327.594-1.327 1.327v5.044a1.327 1.327 0 002.654 0v-1.46A31.243 31.243 0 0166.346 35c0 17.284-14.062 31.346-31.346 31.346S3.655 52.284 3.655 35 17.716 3.655 35 3.655c1.278 0 2.565.077 3.824.23a1.328 1.328 0 00.32-2.635A34.484 34.484 0 0035 1c-9.082 0-17.62 3.537-24.042 9.958C4.537 17.38 1 25.918 1 35s3.537 17.62 9.958 24.042C17.38 65.463 25.918 69 35 69s17.62-3.537 24.042-9.958C65.463 52.62 69 44.082 69 35a33.89 33.89 0 00-7.255-20.993z" fill="#245462"/><path d="M15.397 21.043a1.328 1.328 0 00-1.832.412c-3.03 4.785-4.37 10.54-3.776 16.205a25.41 25.41 0 007.286 15.266c4.942 4.942 11.433 7.413 17.925 7.413 6.492 0 12.984-2.471 17.926-7.413 9.884-9.884 9.884-25.967 0-35.851a25.41 25.41 0 00-15.24-7.284c-5.655-.599-11.404.732-16.188 3.747a1.327 1.327 0 101.416 2.246C31.93 10.1 43.5 11.403 51.049 18.952c8.849 8.849 8.849 23.247 0 32.097-8.85 8.849-23.248 8.849-32.097 0-7.445-7.445-8.767-19.293-3.144-28.174.392-.62.208-1.44-.411-1.832z" fill="#245462"/><path d="M52.254 36.349h1.637a1.327 1.327 0 000-2.655h-1.637a1.327 1.327 0 000 2.655zM14.782 34.978c0 .733.594 1.328 1.327 1.328h1.637a1.327 1.327 0 000-2.655h-1.637c-.733 0-1.327.594-1.327 1.327zM36.349 17.746v-1.637a1.327 1.327 0 00-2.655 0v1.637a1.327 1.327 0 002.655 0zM33.651 52.254v1.637a1.327 1.327 0 002.655 0v-1.637a1.327 1.327 0 00-2.655 0zM28.347 26.47a1.328 1.328 0 00-1.877 1.877l4.498 4.498a4.545 4.545 0 00-.54 2.155A4.578 4.578 0 0035 39.572 4.578 4.578 0 0039.572 35c0-.779-.196-1.512-.54-2.154l9.076-9.077a1.327 1.327 0 00-1.877-1.877l-9.077 9.076a4.543 4.543 0 00-2.154-.54c-.779 0-1.512.196-2.154.54l-4.499-4.498zm8.57 8.53A1.92 1.92 0 0135 36.918 1.92 1.92 0 0133.082 35 1.92 1.92 0 0135 33.082 1.92 1.92 0 0136.918 35zM18.95 18.95c.25-.246.39-.588.39-.938 0-.349-.14-.69-.39-.938a1.336 1.336 0 00-.938-.389c-.349 0-.691.142-.938.39-.247.246-.389.588-.389.938s.142.691.39.938c.246.247.588.389.938.389s.691-.142.938-.39zM44.194 4.966c.35 0 .693-.141.94-.39.246-.246.389-.587.389-.938 0-.349-.142-.691-.39-.938a1.338 1.338 0 00-.94-.389c-.348 0-.69.142-.937.389-.247.247-.39.59-.39.938a1.331 1.331 0 001.327 1.327z" fill="#245462"/><path d="M61.745 14.007h2.1a1.327 1.327 0 000-2.654h-5.043c-.733 0-1.327.594-1.327 1.327v5.044a1.327 1.327 0 002.654 0v-1.46A31.243 31.243 0 0166.346 35c0 17.284-14.062 31.346-31.346 31.346S3.655 52.284 3.655 35 17.716 3.655 35 3.655c1.278 0 2.565.077 3.824.23a1.328 1.328 0 00.32-2.635A34.484 34.484 0 0035 1c-9.082 0-17.62 3.537-24.042 9.958C4.537 17.38 1 25.918 1 35s3.537 17.62 9.958 24.042C17.38 65.463 25.918 69 35 69s17.62-3.537 24.042-9.958C65.463 52.62 69 44.082 69 35a33.89 33.89 0 00-7.255-20.993z" stroke="#245462"/><path d="M15.397 21.043a1.328 1.328 0 00-1.832.412c-3.03 4.785-4.37 10.54-3.776 16.205a25.41 25.41 0 007.286 15.266c4.942 4.942 11.433 7.413 17.925 7.413 6.492 0 12.984-2.471 17.926-7.413 9.884-9.884 9.884-25.967 0-35.851a25.41 25.41 0 00-15.24-7.284c-5.655-.599-11.404.732-16.188 3.747a1.327 1.327 0 101.416 2.246C31.93 10.1 43.5 11.403 51.049 18.952c8.849 8.849 8.849 23.247 0 32.097-8.85 8.849-23.248 8.849-32.097 0-7.445-7.445-8.767-19.293-3.144-28.174.392-.62.208-1.44-.411-1.832z" stroke="#245462"/><path d="M52.254 36.349h1.637a1.327 1.327 0 000-2.655h-1.637a1.327 1.327 0 000 2.655zM14.782 34.978c0 .733.594 1.328 1.327 1.328h1.637a1.327 1.327 0 000-2.655h-1.637c-.733 0-1.327.594-1.327 1.327zM36.349 17.746v-1.637a1.327 1.327 0 00-2.655 0v1.637a1.327 1.327 0 002.655 0zM33.651 52.254v1.637a1.327 1.327 0 002.655 0v-1.637a1.327 1.327 0 00-2.655 0zM28.347 26.47a1.328 1.328 0 00-1.877 1.877l4.498 4.498a4.545 4.545 0 00-.54 2.155A4.578 4.578 0 0035 39.572 4.578 4.578 0 0039.572 35c0-.779-.196-1.512-.54-2.154l9.076-9.077a1.327 1.327 0 00-1.877-1.877l-9.077 9.076a4.543 4.543 0 00-2.154-.54c-.779 0-1.512.196-2.154.54l-4.499-4.498zm8.57 8.53A1.92 1.92 0 0135 36.918 1.92 1.92 0 0133.082 35 1.92 1.92 0 0135 33.082 1.92 1.92 0 0136.918 35zM18.95 18.95c.25-.246.39-.588.39-.938 0-.349-.14-.69-.39-.938a1.336 1.336 0 00-.938-.389c-.349 0-.691.142-.938.39-.247.246-.389.588-.389.938s.142.691.39.938c.246.247.588.389.938.389s.691-.142.938-.39zM44.194 4.966c.35 0 .693-.141.94-.39.246-.246.389-.587.389-.938 0-.349-.142-.691-.39-.938a1.338 1.338 0 00-.94-.389c-.348 0-.69.142-.937.389-.247.247-.39.59-.39.938a1.331 1.331 0 001.327 1.327z" stroke="#245462"/></symbol><symbol fill="none" viewBox="0 0 68 68" id="about-icon-large-4" xmlns="http://www.w3.org/2000/svg"><path d="M34 13.414c-11.351 0-20.586 9.235-20.586 20.586 0 11.351 9.235 20.586 20.586 20.586 11.351 0 20.586-9.235 20.586-20.586 0-11.351-9.235-20.586-20.586-20.586zm0 37.188c-9.154 0-16.602-7.448-16.602-16.602S24.846 17.398 34 17.398 50.602 24.846 50.602 34 43.154 50.602 34 50.602z" fill="#245462"/><path d="M41.969 24.04H26.03c-1.1 0-1.992.891-1.992 1.991V41.97c0 1.1.892 1.992 1.992 1.992H41.97c1.1 0 1.992-.892 1.992-1.992V26.03c0-1.1-.892-1.992-1.992-1.992zm-1.992 15.937H28.023V28.023h3.985v1.993a1.992 1.992 0 003.984 0v-1.993h3.985v11.954z" fill="#245462"/><path d="M66.008 26.695h-4.399a28.23 28.23 0 00-2.928-7.045l3.117-3.118a1.992 1.992 0 000-2.817l-7.513-7.513a1.992 1.992 0 00-2.817 0L48.35 9.319a28.226 28.226 0 00-7.045-2.928V1.992c0-1.1-.892-1.992-1.992-1.992H28.687c-1.1 0-1.992.892-1.992 1.992v4.399a28.229 28.229 0 00-7.045 2.928l-3.118-3.117a1.992 1.992 0 00-2.817 0l-7.513 7.513a1.992 1.992 0 000 2.817l3.117 3.117a28.229 28.229 0 00-2.928 7.046H1.992c-1.1 0-1.992.892-1.992 1.992v10.625c0 1.1.892 1.993 1.992 1.993h4.399a28.23 28.23 0 002.928 7.045l-3.117 3.118a1.992 1.992 0 000 2.817l7.513 7.513a1.992 1.992 0 002.817 0l3.117-3.117a28.23 28.23 0 007.046 2.928v4.399c0 1.1.892 1.992 1.992 1.992h10.625c1.1 0 1.992-.892 1.992-1.992v-4.399a28.23 28.23 0 007.046-2.928l3.117 3.117a1.992 1.992 0 002.818 0l7.513-7.513a1.992 1.992 0 000-2.817L58.68 48.35a28.23 28.23 0 002.929-7.045h4.399c1.1 0 1.992-.892 1.992-1.992V28.688c0-1.1-.892-1.993-1.992-1.993zM64.016 37.32h-3.987c-.947 0-1.764.668-1.952 1.596a24.32 24.32 0 01-3.584 8.625 1.992 1.992 0 00.252 2.509l2.827 2.826-4.696 4.696-2.826-2.827a1.992 1.992 0 00-2.509-.252 24.32 24.32 0 01-8.625 3.584 1.992 1.992 0 00-1.596 1.952v3.987h-6.64v-3.987c0-.947-.667-1.764-1.596-1.952a24.32 24.32 0 01-8.625-3.584 1.992 1.992 0 00-2.508.252l-2.827 2.827-4.696-4.696 2.827-2.826c.67-.67.775-1.719.252-2.509a24.324 24.324 0 01-3.584-8.625 1.993 1.993 0 00-1.952-1.596H3.984v-6.64h3.987c.947 0 1.764-.668 1.952-1.596a24.32 24.32 0 013.584-8.625 1.992 1.992 0 00-.252-2.509l-2.827-2.826 4.695-4.696 2.827 2.827c.67.67 1.719.775 2.509.252a24.318 24.318 0 018.625-3.584 1.992 1.992 0 001.596-1.952V3.984h6.64v3.987c0 .947.668 1.764 1.596 1.952a24.323 24.323 0 018.625 3.584c.79.523 1.839.418 2.509-.252l2.826-2.827 4.696 4.695-2.827 2.827a1.992 1.992 0 00-.252 2.509 24.32 24.32 0 013.584 8.625 1.992 1.992 0 001.952 1.596h3.987v6.64z" fill="#245462"/></symbol><symbol fill="none" viewBox="0 0 20 20" id="about-icon-small-1" xmlns="http://www.w3.org/2000/svg"><path d="M20 6.39a.586.586 0 00-.173-.418L14.816 1a.586.586 0 00-.827.002l-1.456 1.456A6.508 6.508 0 0010 2.719a6.5 6.5 0 00-2.533-.261L6.011 1.002A.586.586 0 005.184 1L.174 5.972a.586.586 0 00.002.835l1.49 1.456a6.506 6.506 0 00.285 2.6c.17.527.404 1.021.697 1.48l-.26.26a1.76 1.76 0 00.546 2.856 1.757 1.757 0 002.398 2.4 1.76 1.76 0 002.857.545l.154-.155.358.358c.02.02.04.037.062.053.331.33.77.51 1.237.51.468 0 .908-.182 1.24-.511.327-.318.211-.204.417-.41.204.203.613.669 1.398.669a1.757 1.757 0 001.614-1.06 1.76 1.76 0 002.115-.283 1.76 1.76 0 00.282-2.116 1.757 1.757 0 00.546-2.856l-.261-.262a6.498 6.498 0 00.983-4.078l1.49-1.456A.586.586 0 0020 6.39zM3.217 14.26a.587.587 0 010-.829l.157-.157c.05.053.1.106.151.157l.675.675-.155.154a.587.587 0 01-.828 0zm1.657 2.486a.586.586 0 11-.829-.829l.983-.983.829.829-.983.983zm2.486.829a.587.587 0 01-.829-.83l.154-.154.83.83-.155.154zm9.423-3.315a.587.587 0 01-.828 0l-4.143-4.143a.586.586 0 10-.829.828l4.972 4.972a.587.587 0 01-.829.829l-4.972-4.972a.586.586 0 10-.828.829l4.143 4.143a.586.586 0 11-.829.829L8.497 13.43a.586.586 0 00-.829.829l3.16 3.16c-.19.19-.104.106-.407.4l-.007.006a.582.582 0 01-.828 0l-.007-.006c-.348-.338-4.851-4.844-5.225-5.217a5.234 5.234 0 01-1.492-4.476.586.586 0 00-.17-.501l-1.27-1.241 4.173-4.142L6.84 3.487c.13.13.314.192.496.166.288-.04.579-.057.87-.05-.3.211-.582.449-.846.713L4.045 7.631a1.757 1.757 0 102.486 2.486l2.35-2.35a4.105 4.105 0 002.355.117l5.547 5.547c.23.23.23.6 0 .829zm.526-6.634a.586.586 0 00-.171.501 5.317 5.317 0 01-.64 3.36l-4.092-4.09c.27-.166.524-.364.754-.595a.586.586 0 00-.828-.828 2.935 2.935 0 01-3.335.572.586.586 0 00-.667.115L5.702 9.288a.587.587 0 01-.828-.828l3.314-3.315a5.236 5.236 0 014.476-1.492.586.586 0 00.497-.166l1.244-1.244 4.174 4.142-1.27 1.24z" fill="#000"/></symbol><symbol fill="none" viewBox="0 0 18 20" id="about-icon-small-2" xmlns="http://www.w3.org/2000/svg"><path d="M11.803 12.196l3.138-1.812a.586.586 0 10-.586-1.014l-3.138 1.811a.586.586 0 00.586 1.015z" fill="#000"/><path d="M17.446 4.786L9.293.079a.586.586 0 00-.586 0L.554 4.786a.586.586 0 00-.293.507v9.414c0 .21.112.403.293.507l8.153 4.708a.586.586 0 00.586 0l8.153-4.708a.586.586 0 00.293-.507V5.293a.586.586 0 00-.293-.507zm-4.18-1.06l-6.98 4.03-1.546-.892 6.98-4.03 1.546.892zM5.7 8.77v1.78l-1.548-.894.002-1.779 1.546.893zM9 1.262l1.55.895-6.981 4.03-1.55-.894L9 1.263zM8.415 18.4l-6.981-4.03V6.308l1.549.894-.003 2.792c0 .21.112.404.293.508l2.72 1.571c.305.176.58.003.586 0a.586.586 0 00.293-.508V9.448l1.543.89V18.4zM9 9.323l-1.543-.89 6.981-4.03 1.543.89L9 9.323zm7.567 5.046l-6.981 4.03v-8.06l6.98-4.031v8.06z" fill="#000"/><path d="M14.355 12.508l-3.138 1.811a.586.586 0 00.586 1.015l3.138-1.811a.586.586 0 00-.586-1.015z" fill="#000"/></symbol><symbol fill="none" viewBox="0 0 20 20" id="about-icon-small-3" xmlns="http://www.w3.org/2000/svg"><path d="M10.39 20h-.78a2.346 2.346 0 01-2.344-2.344v-.393a.261.261 0 00-.166-.24l-.015-.005a.262.262 0 00-.287.051l-.278.278a2.328 2.328 0 01-1.658.687 2.328 2.328 0 01-1.657-.687l-.552-.552a2.328 2.328 0 01-.687-1.657c0-.626.244-1.215.687-1.658l.278-.278a.262.262 0 00.051-.287l-.006-.014a.261.261 0 00-.239-.167h-.393A2.346 2.346 0 010 10.391v-.782a2.346 2.346 0 012.344-2.343h.393a.261.261 0 00.24-.166l.005-.015a.262.262 0 00-.051-.287l-.278-.278a2.328 2.328 0 01-.687-1.658c0-.626.244-1.214.687-1.657l.552-.552a2.328 2.328 0 011.657-.687c.626 0 1.215.244 1.658.687l.278.278a.262.262 0 00.287.051l.015-.006a.261.261 0 00.166-.239v-.393A2.346 2.346 0 019.609 0h.782a2.346 2.346 0 012.343 2.344v.393c0 .104.066.198.166.24l.015.005a.262.262 0 00.287-.051l.278-.278a2.328 2.328 0 011.658-.687c.626 0 1.214.244 1.657.687l.552.552c.443.443.687 1.031.687 1.657 0 .626-.244 1.215-.687 1.658l-.278.278a.262.262 0 00-.051.287l.006.014c.041.101.135.167.239.167h.393A2.346 2.346 0 0120 9.609v.782c0 1.07-.723 2.003-1.758 2.27a.781.781 0 01-.39-1.514.78.78 0 00.585-.756v-.782c0-.43-.35-.78-.78-.78h-.394c-.739 0-1.4-.445-1.683-1.133l-.006-.014a1.818 1.818 0 01.39-1.989l.278-.278a.776.776 0 00.23-.553.776.776 0 00-.23-.552l-.552-.552a.776.776 0 00-.552-.23.776.776 0 00-.553.23l-.278.278a1.82 1.82 0 01-1.992.39l-.011-.006a1.819 1.819 0 01-1.132-1.683v-.393c0-.431-.35-.781-.781-.781h-.782c-.43 0-.78.35-.78.78v.394c0 .739-.445 1.4-1.133 1.683l-.011.005a1.82 1.82 0 01-1.992-.39l-.278-.277a.776.776 0 00-.553-.23.776.776 0 00-.552.23l-.552.552a.776.776 0 00-.23.552c0 .21.082.405.23.553l.278.278a1.82 1.82 0 01.39 1.992l-.006.011a1.819 1.819 0 01-1.683 1.132h-.393c-.431 0-.781.35-.781.781v.782c0 .43.35.78.78.78h.394c.739 0 1.4.445 1.683 1.133l.005.011a1.82 1.82 0 01-.39 1.992l-.277.278a.776.776 0 00-.23.552c0 .21.082.405.23.553l.552.553a.776.776 0 00.552.228.776.776 0 00.553-.229l.278-.278a1.82 1.82 0 011.992-.39l.011.006a1.818 1.818 0 011.132 1.683v.393c0 .431.35.782.781.782h.782c.343 0 .643-.22.745-.547a.781.781 0 011.491.468A2.334 2.334 0 0110.391 20zm8.94-.709a2.27 2.27 0 00.67-1.616 2.27 2.27 0 00-.67-1.616v-.001l-5.066-5.045c.234-.51.384-1.099.384-1.573.002-1.011-.388-1.936-1.127-2.676-.906-.905-2.282-1.445-3.684-1.445h-.009c-.453 0-.885.075-1.357.235a.781.781 0 00-.308 1.287l1.882 1.922-.236 1.013-.996.226-1.911-1.915a.781.781 0 00-1.293.3 4.34 4.34 0 00-.251 1.402c-.002 1.164.363 2.328 1.002 3.195.773 1.048 1.878 1.625 3.112 1.625h.007c.431 0 1.034-.122 1.573-.356l5.046 5.038a2.27 2.27 0 001.616.67 2.27 2.27 0 001.617-.67zm-8.595-6.639c-.323.232-.923.394-1.259.395-.933 0-1.525-.538-1.858-.99-.344-.467-.574-1.066-.66-1.701l1.053 1.056c.19.19.464.27.726.21l1.895-.43a.781.781 0 00.589-.585l.443-1.908a.781.781 0 00-.203-.724l-1.029-1.05c.775.115 1.49.45 1.984.944.445.446.67.973.67 1.568 0 .313-.184.915-.428 1.252a.781.781 0 00.082 1.012l5.486 5.463a.718.718 0 01.212.511.718.718 0 01-.212.511.72.72 0 01-1.023 0l-5.46-5.451a.78.78 0 00-1.008-.082z" fill="#000"/></symbol><symbol fill="none" viewBox="0 0 16 20" id="about-icon-small-4" xmlns="http://www.w3.org/2000/svg"><path d="M8 4V0L3 5l5 5V6c3.3 0 6 2.7 6 6s-2.7 6-6 6-6-2.7-6-6H0c0 4.4 3.6 8 8 8s8-3.6 8-8-3.6-8-8-8z" fill="#000"/></symbol><symbol fill="none" viewBox="0 0 17 20" id="bag-icon" xmlns="http://www.w3.org/2000/svg"><path d="M2.008 8.572l-.497-.055.497.055zm-1 9l.497.056-.497-.056zm15.111 0l-.497.056.497-.056zm-1-9l.497-.055-.497.055zM1.511 8.517l-1 9 .994.11 1-9-.994-.11zM2.286 19.5h12.556v-1H2.286v1zm14.33-1.983l-1-9-.994.11 1 9 .994-.11zM13.842 6.93H3.286v1h10.556v-1zm1.774 1.588a1.786 1.786 0 00-1.774-1.588v1c.4 0 .736.3.78.699l.994-.11zM14.842 19.5a1.786 1.786 0 001.774-1.983l-.994.11a.786.786 0 01-.78.873v1zM.511 17.517A1.786 1.786 0 002.285 19.5v-1a.786.786 0 01-.781-.872l-.994-.11zm1.993-8.89a.786.786 0 01.78-.698v-1c-.909 0-1.673.684-1.774 1.588l.994.11zM5.207 5.5v-.643h-1V5.5h1zm6.714-.643V5.5h1v-.643h-1zM8.564 1.5a3.357 3.357 0 013.357 3.357h1A4.357 4.357 0 008.564.5v1zM5.207 4.857A3.357 3.357 0 018.564 1.5v-1a4.357 4.357 0 00-4.357 4.357h1z" fill="#000"/></symbol><symbol viewBox="0 0 28 23" id="bedroom-icon" xmlns="http://www.w3.org/2000/svg"><path d="M28 12.648a2.43 2.43 0 00-1.323-2.178c-.832-.426-1.909-.642-3.201-.642H9.425a2.81 2.81 0 00-.662-1.337L6.771 6.276c-.493-.548-1.202-.88-1.995-.937l-.358-.025a1.408 1.408 0 00-.548.072v-1.17c0-.41-.173-.781-.45-1.044.28-.335.45-.767.45-1.237A1.937 1.937 0 001.935 0 1.937 1.937 0 000 1.935c0 .47.169.902.449 1.237A1.435 1.435 0 000 4.215v17.456c0 .302.245.547.547.547h1.887a.547.547 0 00.545-.495c.065-.689.43-2.58 1.331-3.428h1.465a.547.547 0 000-1.094H1.094v-4.815h7.3v1.425c0 .843.685 1.53 1.528 1.53h16.549c.147 0 .294-.022.435-.064v1.924h-3.013H10.587a.547.547 0 100 1.094H23.69c.898.845 1.265 2.738 1.331 3.428.027.28.262.495.545.495h1.887a.547.547 0 00.547-.547v-9.023zM3.871 7.174c.008-.233-.024-.473.168-.645.193-.172.425-.116.66-.099.516.037.952.236 1.259.578L7.95 9.223c.323.359.478.859.436 1.409-.016.211-.012.399-.19.548-.163.136-.34.11-.536.105-.55-.017-1.032-.223-1.355-.582L4.313 8.488c-.323-.359-.459-.838-.442-1.314zm-2.777 4.119V4.215c0-.19.155-.345.345-.345h.991c.19 0 .346.155.346.345v7.077H1.094zM3.87 9.63l1.495 1.662H3.87V9.63zM1.935 1.094a.842.842 0 010 1.682.842.842 0 010-1.682zm.023 20.03h-.864v-2.83h1.834c-.592.97-.86 2.168-.97 2.83zm7.964-6.877a.436.436 0 01-.435-.436v-2.889h13.989c1.117 0 2.027.176 2.703.521.449.23.727.691.727 1.205v1.163c0 .24-.195.436-.435.436H9.922zm16.12 6.877c-.11-.662-.378-1.86-.97-2.83h1.834v2.83h-.864z"/><path d="M8.686 17.539a.552.552 0 00-.714-.296.551.551 0 00-.296.714c.114.275.439.41.714.296a.552.552 0 00.296-.714z"/></symbol><symbol fill="none" viewBox="0 0 20 20" id="cart-icon" xmlns="http://www.w3.org/2000/svg"><path d="M2.008 8.572l-.497-.055.497.055zm-1 9l.497.056-.497-.056zm15.111 0l-.497.056.497-.056zm-1-9l.497-.055-.497.055zM1.511 8.517l-1 9 .994.11 1-9-.994-.11zM2.286 19.5h12.556v-1H2.286v1zm14.33-1.983l-1-9-.994.11 1 9 .994-.11zM13.842 6.93H3.286v1h10.556v-1zm1.774 1.588a1.786 1.786 0 00-1.774-1.588v1c.4 0 .736.3.78.699l.994-.11zM14.842 19.5a1.786 1.786 0 001.774-1.983l-.994.11a.786.786 0 01-.78.873v1zM.511 17.517A1.786 1.786 0 002.285 19.5v-1a.786.786 0 01-.781-.872l-.994-.11zm1.993-8.89a.786.786 0 01.78-.698v-1c-.909 0-1.673.684-1.774 1.588l.994.11zM5.207 5.5v-.643h-1V5.5h1zm6.714-.643V5.5h1v-.643h-1zM8.564 1.5a3.357 3.357 0 013.357 3.357h1A4.357 4.357 0 008.564.5v1zM5.207 4.857A3.357 3.357 0 018.564 1.5v-1a4.357 4.357 0 00-4.357 4.357h1z" fill="#000"/><circle cx="16" cy="5" r="4" fill="#D74444"/></symbol><symbol fill="none" viewBox="0 0 20 20" id="cart-icon_active" xmlns="http://www.w3.org/2000/svg"><path d="M1.008 17.572l1-9A1.286 1.286 0 013.286 7.43h10.556c.655 0 1.205.492 1.277 1.143l1 9A1.286 1.286 0 0114.842 19H2.286a1.286 1.286 0 01-1.278-1.428z" fill="#000"/><path d="M2.008 8.572l-.497-.055.497.055zm-1 9l.497.056-.497-.056zm15.111 0l-.497.056.497-.056zm-1-9l.497-.055-.497.055zM1.511 8.517l-1 9 .994.11 1-9-.994-.11zM2.286 19.5h12.556v-1H2.286v1zm14.33-1.983l-1-9-.994.11 1 9 .994-.11zM13.842 6.93H3.286v1h10.556v-1zm1.774 1.588a1.786 1.786 0 00-1.774-1.588v1c.4 0 .736.3.78.699l.994-.11zM14.842 19.5a1.786 1.786 0 001.774-1.983l-.994.11a.786.786 0 01-.78.873v1zM.511 17.517A1.786 1.786 0 002.285 19.5v-1a.786.786 0 01-.781-.872l-.994-.11zm1.993-8.89a.786.786 0 01.78-.698v-1c-.909 0-1.673.684-1.774 1.588l.994.11zM5.207 5.5v-.643h-1V5.5h1zm6.714-.643V5.5h1v-.643h-1zM8.564 1.5a3.357 3.357 0 013.357 3.357h1A4.357 4.357 0 008.564.5v1zM5.207 4.857A3.357 3.357 0 018.564 1.5v-1a4.357 4.357 0 00-4.357 4.357h1z" fill="#000"/><circle cx="16" cy="5" r="4" fill="#D74444"/></symbol><symbol fill="none" viewBox="0 0 12 9" id="checkbox-checkmark" xmlns="http://www.w3.org/2000/svg"><path d="M2 4.353L4.647 7l5-5"/></symbol><symbol viewBox="0 0 23 22" id="childrensroom-icon" xmlns="http://www.w3.org/2000/svg"><path d="M22.772 18.326a.644.644 0 00-.908-.012l-.002.002-.002-.002.004-.003c-.002.002-.079.073-.24.19V8.461a.644.644 0 10-1.288 0V9.1c-2.301-.053-3.486-.384-4.635-.705-1.06-.297-2.061-.577-3.744-.577-1.683 0-2.685.28-3.745.577-1.148.321-2.333.652-4.634.705V5.883c0-2.312 1.054-3.887 2.968-4.434a4.122 4.122 0 014.62 1.764c-.234.116-.433.24-.595.373l-.736-.736a.645.645 0 10-.912.911l.833.833-.833.834a.645.645 0 10.912.911l.736-.736c.222.181.512.347.87.497.609.256 1.334.428 1.805.428a1.936 1.936 0 001.934-1.934 1.936 1.936 0 00-1.934-1.933 3.86 3.86 0 00-.84.115A5.41 5.41 0 006.192.21C3.712.918 2.29 2.986 2.29 5.883v12.618a2.68 2.68 0 01-.24-.19l.004.003-.001.002-.002-.002a.645.645 0 00-.9.923c.056.056.787.752 2.49 1.428C5.346 21.343 8.019 22 11.958 22c3.938 0 6.612-.657 8.316-1.335 1.704-.676 2.435-1.372 2.491-1.428a.644.644 0 00.008-.911zM12.108 4.21c.46-.17.921-.26 1.138-.26a.645.645 0 010 1.289c-.217 0-.677-.09-1.138-.26-.4-.15-.624-.294-.733-.385.109-.09.334-.235.733-.384zm-8.53 6.178c2.486-.055 3.807-.424 4.982-.753 1.014-.284 1.89-.529 3.397-.529 1.506 0 2.382.245 3.397.53 1.175.328 2.495.697 4.982.752v6.452H3.578v-6.452zm0 7.741h16.758v1.104c-2.451 1.127-5.66 1.474-8.38 1.474-2.719 0-5.927-.347-8.378-1.474V18.13z"/><path d="M6.8 15.551a.645.645 0 00.645-.644v-2.578a.644.644 0 10-1.29 0v2.578c0 .356.29.644.645.644zM9.378 15.551a.645.645 0 00.645-.644v-2.578a.644.644 0 10-1.29 0v2.578c0 .356.29.644.645.644zM11.956 15.551a.645.645 0 00.645-.644v-2.578a.644.644 0 10-1.29 0v2.578c0 .356.29.644.645.644zM14.534 15.551a.645.645 0 00.645-.644v-2.578a.644.644 0 10-1.29 0v2.578c0 .356.29.644.646.644zM17.113 15.551a.644.644 0 00.644-.644v-2.578a.644.644 0 10-1.289 0v2.578c0 .356.289.644.645.644z"/></symbol><symbol fill="none" viewBox="0 0 12 12" id="close-cross-catalog" xmlns="http://www.w3.org/2000/svg"><path fill-rule="evenodd" clip-rule="evenodd" d="M4.736 6.707a1 1 0 000-1.414L1.278 1.835a.393.393 0 01.557-.557l3.458 3.458a1 1 0 001.414 0l3.458-3.458a.394.394 0 01.557.557L7.264 5.293a1 1 0 000 1.414l3.458 3.458a.394.394 0 01-.557.557L6.707 7.264a1 1 0 00-1.414 0l-3.458 3.458a.394.394 0 01-.557-.557l3.458-3.458z" fill="#414141" stroke="#414141"/></symbol><symbol viewBox="0 0 22 22" id="closet-icon" xmlns="http://www.w3.org/2000/svg"><path d="M21.27 0H.645a.645.645 0 000 1.29h.042v20.066a.645.645 0 001.29 0v-.387h17.96v.386a.645.645 0 001.29 0V1.29h.043a.645.645 0 100-1.289zm-9.668 13.363h8.335v2.492h-8.335v-2.492zm8.335-1.289h-8.335V9.582h8.335v2.492zm-9.625 7.606H6.79V1.29h3.524v18.39zM1.977 1.29H5.5v18.39H1.977V1.29zm9.625 18.39v-2.535h8.335v2.535h-8.335zm8.335-11.387h-8.335V1.289h8.335v7.004z"/><path d="M8.55 11.645a.644.644 0 100-1.29.644.644 0 000 1.29zM3.738 11.645a.645.645 0 100-1.29.645.645 0 000 1.29z"/></symbol><symbol fill="none" viewBox="0 0 27 25" id="dollar-icon" xmlns="http://www.w3.org/2000/svg"><path d="M13.556 11.894c-1.328 0-2.408-.965-2.408-2.15 0-1.186 1.08-2.15 2.408-2.15 1.328 0 2.41.964 2.41 2.15 0 .431.346.781.774.781.428 0 .775-.35.775-.781 0-1.8-1.371-3.302-3.184-3.642V4.345a.778.778 0 00-.775-.782.778.778 0 00-.774.782v1.757c-1.813.34-3.184 1.842-3.184 3.642 0 2.047 1.776 3.713 3.958 3.713 1.329 0 2.41.965 2.41 2.15 0 1.187-1.081 2.152-2.41 2.152-1.47 0-2.565-.787-2.79-2.004a.775.775 0 10-1.523.287c.319 1.726 1.7 2.953 3.539 3.223v1.39c0 .432.347.782.774.782.428 0 .775-.35.775-.782V19.25c1.813-.338 3.184-1.842 3.184-3.641 0-2.048-1.777-3.714-3.959-3.714z" fill="#000"/><path d="M19.774 22.317a.771.771 0 00-1.056-.294c-4.223 2.419-9.575 1.685-13.014-1.785-3.263-3.293-4.006-8.179-2.231-12.2l1.136 1.146a.77.77 0 00.844.17.782.782 0 00.478-.722V4.21a.818.818 0 00-.015-.153c-.005-.023-.013-.045-.02-.067-.007-.027-.014-.053-.024-.079-.011-.026-.026-.05-.04-.075-.01-.02-.019-.04-.031-.06a.787.787 0 00-.215-.217c-.019-.012-.038-.02-.057-.03-.025-.015-.05-.03-.077-.042-.025-.01-.05-.016-.075-.023-.023-.007-.045-.016-.07-.021a.793.793 0 00-.148-.015H.775a.775.775 0 00-.716.481.786.786 0 00.168.852l2.084 2.103C-.031 11.555.733 17.43 4.609 21.34A12.357 12.357 0 0013.39 25c2.09 0 4.19-.53 6.092-1.619a.783.783 0 00.291-1.064zM26.517 20.238l-2.084-2.103c2.341-4.69 1.578-10.566-2.298-14.477-3.93-3.965-10.045-4.803-14.874-2.04a.786.786 0 00-.292 1.065.771.771 0 001.057.295C12.25.56 17.602 1.294 21.04 4.763c3.263 3.293 4.005 8.18 2.231 12.2l-1.136-1.147a.77.77 0 00-.844-.17.782.782 0 00-.478.723v4.42c0 .052.006.103.015.154.005.023.013.045.02.067.008.027.014.053.024.079.01.027.026.05.04.076.01.02.019.04.031.058a.78.78 0 00.215.217c.019.012.038.02.057.032.026.014.05.029.076.04.026.01.052.016.078.024.022.007.044.015.067.02.05.01.1.015.152.015h4.381c.314 0 .596-.19.716-.482a.785.785 0 00-.168-.851z" fill="#000"/></symbol><symbol viewBox="0 0 3 16" id="etc-icon" xmlns="http://www.w3.org/2000/svg"><path d="M1.636 2.273a.636.636 0 110-1.273.636.636 0 010 1.273zM1.636 8.636a.636.636 0 110-1.272.636.636 0 010 1.272zM1.636 15a.636.636 0 110-1.273.636.636 0 010 1.273z"/></symbol><symbol fill="none" viewBox="0 0 24 24" id="gift-icon" xmlns="http://www.w3.org/2000/svg"><path d="M21.429 12H2.57m18.858 0c.867 0 1.571-.704 1.571-1.571V8.857c0-.868-.704-1.571-1.571-1.571H2.57C1.704 7.286 1 7.989 1 8.857v1.572C1 11.296 1.704 12 2.571 12m18.858 0v7.857A3.143 3.143 0 0118.286 23H5.714a3.143 3.143 0 01-3.143-3.143V12M12 7.286V5.714m0 1.572H6.837a2.694 2.694 0 01-2.694-2.694v-.45A3.143 3.143 0 017.286 1 4.714 4.714 0 0112 5.714m0 1.572h5.163a2.694 2.694 0 002.694-2.694v-.45A3.143 3.143 0 0016.714 1 4.714 4.714 0 0012 5.714m0 1.572V23" stroke="#000" stroke-width="1.3"/></symbol><symbol fill="none" viewBox="0 0 20 20" id="green-checkmark" xmlns="http://www.w3.org/2000/svg"><path d="M10 0C4.486 0 0 4.486 0 10s4.486 10 10 10 10-4.486 10-10S15.514 0 10 0zm5.742 8.31L9.46 14.594a1.405 1.405 0 01-1 .415c-.378 0-.733-.147-1-.415l-3.202-3.202a1.405 1.405 0 01-.414-1c0-.377.147-.732.414-1a1.405 1.405 0 011-.414c.378 0 .733.147 1 .415l2.202 2.201 5.282-5.282a1.405 1.405 0 011-.414 1.416 1.416 0 011 2.414z" fill="#48CC65"/></symbol><symbol viewBox="0 0 23 23" id="kitchen-icon" xmlns="http://www.w3.org/2000/svg"><path d="M11.5 0v12.938H0V23h23V0H11.5zm0 21.563H1.437v-7.188H11.5v7.188zm10.063 0h-8.625V7.188h8.624v14.375zm0-15.813h-8.625V1.437h8.624V5.75z"/><path d="M10.063 4.734L8.624 3.296V0H7.187v3.891L8.626 5.33v.421h-5.75v-.421L4.313 3.89V0H2.875v3.296L1.437 4.734v2.454h8.626V4.733zM8.625 15.813H4.312v1.437h4.313v-1.438zM15.813 2.875h-1.438v1.438h1.438V2.875zM15.813 10.063h-1.438v4.312h1.438v-4.313zM2.875 8.625H1.437v1.438h1.438V8.624zM6.469 8.625H5.03v1.438H6.47V8.624zM10.063 8.625H8.624v1.438h1.438V8.624z"/></symbol><symbol viewBox="0 0 30 23" id="livingroom-icon" xmlns="http://www.w3.org/2000/svg"><path d="M29.531 15.938h-1.406v-2.813h.938a.469.469 0 00.462-.546l-.47-2.812a.469.469 0 00-.461-.392h-1.875a.469.469 0 00-.462.392l-.47 2.812a.469.469 0 00.463.546h.938v2.813h-1.875a.393.393 0 00-.047.009 2.347 2.347 0 00-2.297-1.884h-.938v-1.407c0-.776-.63-1.406-1.406-1.406h-3.75c-.777 0-1.406.63-1.406 1.406v1.406h-.938v-1.406c0-.776-.63-1.406-1.406-1.406h-3.75c-.777 0-1.406.63-1.406 1.406v1.406H7.03a2.347 2.347 0 00-2.297 1.885.392.392 0 00-.046-.01H2.813v-2.812h.937a.469.469 0 00.462-.546l-.469-2.812a.469.469 0 00-.462-.392H1.406a.469.469 0 00-.462.392l-.469 2.812a.469.469 0 00.463.546h.937v2.813H.469a.469.469 0 00-.469.468v5.157c0 .258.21.468.469.468H29.53c.26 0 .469-.21.469-.468v-5.157a.469.469 0 00-.469-.468zm-28.04-3.75l.312-1.876h1.081l.312 1.876H1.491zm2.728 8.906H.937v-4.219H4.22v4.219zm12.187-8.438c0-.259.21-.469.469-.469h3.75c.259 0 .469.21.469.47v1.405h-4.688v-1.406zm-7.5 0c0-.259.21-.469.469-.469h3.75c.259 0 .469.21.469.47v1.405H8.906v-1.406zm15.469 8.438H5.625v-1.407h18.75v1.407zm0-2.344H5.625v-2.344c0-.776.63-1.406 1.406-1.406H22.97c.776 0 1.406.63 1.406 1.406v2.344zm2.429-6.563l.312-1.874h1.08l.313 1.874h-1.705zm2.259 8.907H25.78v-4.219h3.282v4.219zM9.375 8.438h10.313c.258 0 .468-.21.468-.47v-7.5A.469.469 0 0019.688 0H9.374a.469.469 0 00-.469.469v7.5c0 .259.21.468.469.468zm.469-7.5h9.375v4.756l-1.04-1.3a.47.47 0 00-.698-.039L15.937 5.9l-2.95-2.95a.469.469 0 00-.635-.025l-2.508 2.15V.937zm0 5.37l2.787-2.39 2.975 2.974c.183.183.48.183.663 0l1.505-1.504 1.445 1.808V7.5H9.844V6.309z"/><path d="M16.406 4.219a1.406 1.406 0 100-2.813 1.406 1.406 0 000 2.813zm0-1.875a.469.469 0 110 .937.469.469 0 010-.937z"/></symbol><symbol viewBox="0 0 22 22" id="new-icon" xmlns="http://www.w3.org/2000/svg"><path fill-rule="evenodd" clip-rule="evenodd" d="M20.733 9.362l.016.011C21.335 9.803 22 10.295 22 11c0 .704-.665 1.194-1.25 1.625-.339.247-.762.56-.817.766.02.397.13.784.325 1.13l.009.02c.295.68.597 1.377.255 1.965-.345.594-1.12.681-1.87.765-.388.003-.77.093-1.118.265-.172.348-.263.73-.266 1.118-.084.75-.181 1.532-.77 1.871-.59.34-1.3.034-1.984-.265a2.58 2.58 0 00-1.123-.329c-.2.052-.503.462-.751.799l-.014.019-.001.001c-.431.585-.92 1.248-1.625 1.248-.706 0-1.195-.663-1.626-1.248v-.001c-.248-.339-.56-.761-.766-.817a2.626 2.626 0 00-1.13.325l-.017.008c-.68.296-1.379.6-1.968.256-.594-.346-.68-1.12-.765-1.87a2.547 2.547 0 00-.266-1.122 2.547 2.547 0 00-1.118-.267c-.75-.079-1.528-.175-1.87-.765-.342-.59-.034-1.3.264-1.984.195-.344.307-.728.329-1.122-.05-.2-.465-.506-.8-.754l-.017-.011c-.586-.43-1.25-.92-1.25-1.627 0-.705.664-1.195 1.25-1.626.338-.246.76-.558.816-.765a2.56 2.56 0 00-.33-1.125c-.301-.686-.605-1.396-.26-1.99.346-.594 1.122-.681 1.872-.765a2.555 2.555 0 001.114-.262 2.56 2.56 0 00.266-1.118c.084-.754.182-1.535.77-1.875.589-.34 1.299-.038 1.987.265.345.193.729.305 1.123.329.2-.052.503-.462.751-.798l.014-.02.001-.001C9.805.663 10.294 0 11 0c.703 0 1.19.657 1.623 1.24l.006.01c.248.338.559.76.765.816a2.568 2.568 0 001.123-.33c.685-.301 1.396-.605 1.99-.258.594.346.68 1.12.765 1.87.002.39.093.773.266 1.122.347.173.73.264 1.118.266.749.08 1.527.176 1.87.766.342.59.034 1.3-.264 1.984a2.56 2.56 0 00-.33 1.122c.052.2.466.506.802.754zM7.747 13.199a.478.478 0 00.861-.287V9.087a.478.478 0 00-.956 0v2.39L5.643 8.8a.478.478 0 00-.86.287v3.825a.478.478 0 00.956 0v-2.39l2.008 2.677zm4.209.192h-1.913a.478.478 0 01-.478-.479V9.087c0-.265.214-.479.478-.479h1.913a.478.478 0 010 .957H10.52v.956h1.435a.478.478 0 010 .957H10.52v.956h1.435a.478.478 0 010 .957zm4.328-.327a.478.478 0 00.454.327l.02-.001a.478.478 0 00.445-.362l.957-3.826a.479.479 0 00-.93-.231l-.557 2.232-.437-1.311a.498.498 0 00-.908 0l-.437 1.311-.557-2.232a.479.479 0 10-.929.231l.956 3.826a.478.478 0 00.446.362.457.457 0 00.473-.326l.502-1.509.502 1.509z"/></symbol><symbol viewBox="0 0 23 22" id="office-icon" xmlns="http://www.w3.org/2000/svg"><path d="M22.313 10.398h-.992c.22-.38.347-.82.347-1.289V7.176a.645.645 0 00-.645-.645h-1.22c.371-1.73 2.132-2.677 2.162-2.693a.645.645 0 00-.593-1.145 6.374 6.374 0 00-1.638 1.302V1.977a.645.645 0 00-1.289 0v2.018a6.372 6.372 0 00-1.637-1.302.645.645 0 10-.592 1.145c.02.01 1.791.946 2.162 2.693h-1.222a.645.645 0 00-.644.645v1.933c0 .47.126.91.347 1.29h-5.793l-.644-1.29h2.867a.645.645 0 00.645-.644V.645A.645.645 0 0013.289 0H2.891a.645.645 0 00-.645.645v7.82c0 .356.289.644.645.644h2.867l-.645 1.29H1.602a.645.645 0 000 1.289h.644v9.667a.645.645 0 001.29 0v-1.933h9.109v1.933c0 .356.288.645.644.645h7.734a.645.645 0 00.645-.645v-9.668h.645a.644.644 0 100-1.289zM17.8 9.11V7.82h2.578v1.29a1.29 1.29 0 01-1.29 1.288 1.29 1.29 0 01-1.288-1.289zM3.535 1.29h9.11V7.82h-9.11V1.29zM7.2 9.11h1.782l.644 1.29h-3.07l.644-1.29zm-3.664 9.024v-6.445h9.11v6.445h-9.11zm10.399-1.29h6.445v3.868h-6.445v-3.867zm6.445-1.288h-6.445v-3.867h6.445v3.867z"/><path d="M17.156 14.266a.645.645 0 100-1.29.645.645 0 000 1.29zM17.156 19.422a.645.645 0 100-1.29.645.645 0 000 1.29z"/></symbol><symbol viewBox="0 0 15 20" id="profile-icon" xmlns="http://www.w3.org/2000/svg"><path fill-rule="evenodd" clip-rule="evenodd" d="M11.292 4.857a3.858 3.858 0 01-3.86 3.857 3.858 3.858 0 110-7.714 3.858 3.858 0 013.86 3.857zM13.866 19H1v-2.57a3.86 3.86 0 013.86-3.859h5.146a3.86 3.86 0 013.86 3.86V19z" stroke="#000" stroke-linecap="square"/></symbol><symbol viewBox="0 0 15 15" id="rating-icon" xmlns="http://www.w3.org/2000/svg"><path d="M7.948.279a.5.5 0 00-.896 0L5.005 4.426l-4.577.665a.5.5 0 00-.277.853l3.312 3.228-.782 4.559a.5.5 0 00.725.527L7.5 12.105l4.094 2.153a.5.5 0 00.725-.527l-.782-4.56 3.312-3.227a.5.5 0 00-.277-.853l-4.577-.665L7.948.28z"/></symbol><symbol fill="none" viewBox="0 0 25 25" id="ruble-icon" xmlns="http://www.w3.org/2000/svg"><path d="M14.069 6.276h-3.923a.732.732 0 00-.732.732v5.544h-.837a.732.732 0 100 1.465h.837v1.673h-.837a.732.732 0 100 1.465h.837v1.621a.732.732 0 001.465 0v-1.621h3.19a.732.732 0 100-1.465h-3.19v-1.673h3.19a3.875 3.875 0 003.87-3.87c0-2.187-1.78-3.871-3.87-3.871zm0 6.276h-3.19V7.741h3.19a2.403 2.403 0 012.406 2.405 2.408 2.408 0 01-2.406 2.406z" fill="#000"/><path d="M12.5 0C5.607 0 0 5.607 0 12.5 0 19.392 5.607 25 12.5 25 19.392 25 25 19.392 25 12.5 25 5.607 19.392 0 12.5 0zm0 23.535c-6.085 0-11.035-4.95-11.035-11.035S6.415 1.465 12.5 1.465 23.535 6.415 23.535 12.5 18.585 23.535 12.5 23.535z" fill="#000"/></symbol><symbol viewBox="0 0 19 19" id="sale-icon" xmlns="http://www.w3.org/2000/svg"><path d="M6.464 7.071H7.68m3.642 4.858h1.215m0-5.465l-6.072 6.072M8.652 1.35L7.28 2.722a1.2 1.2 0 01-.848.352h-2.16a1.2 1.2 0 00-1.2 1.2v2.159a1.2 1.2 0 01-.35.848L1.35 8.65a1.2 1.2 0 000 1.697l1.371 1.371a1.2 1.2 0 01.352.848v2.16a1.2 1.2 0 001.2 1.2h2.159a1.2 1.2 0 01.848.35l1.37 1.372a1.2 1.2 0 001.697 0l1.371-1.371a1.2 1.2 0 01.848-.352h2.16a1.2 1.2 0 001.2-1.2v-2.159a1.2 1.2 0 01.35-.848l1.372-1.37a1.2 1.2 0 000-1.697L16.278 7.28a1.2 1.2 0 01-.352-.848v-2.16a1.2 1.2 0 00-1.2-1.2h-2.159a1.2 1.2 0 01-.848-.35L10.35 1.35a1.2 1.2 0 00-1.697 0z"/></symbol><symbol fill="none" viewBox="0 0 19 11" id="sort-by-icon" xmlns="http://www.w3.org/2000/svg"><path fill-rule="evenodd" clip-rule="evenodd" d="M0 1.222h18.333V0H0v1.222zm11 4.89h7.333V4.888H11V6.11zM7.333 11h11V9.778h-11V11z" fill="#000"/></symbol><symbol viewBox="0 0 22 19" id="wishlist-icon" xmlns="http://www.w3.org/2000/svg"><path d="M10.917 18l-.354.354a.5.5 0 00.707 0L10.917 18zm-8.45-8.45l-.354.354.354-.354zM9.55 2.467l-.353.354.353-.354zm1.367 1.366l-.354.354a.5.5 0 00.707 0l-.353-.354zm1.366-1.366l-.354-.354.354.354zm-1.013 15.18l-8.45-8.45-.707.707 8.45 8.45.707-.708zm7.743-8.45l-8.45 8.45.707.707 8.45-8.45-.707-.707zM9.197 2.82l1.366 1.366.707-.707-1.366-1.367-.707.708zm2.073 1.366l1.367-1.366-.708-.708-1.366 1.367.707.707zM15.825.5c-1.461 0-2.862.58-3.896 1.613l.707.708A4.509 4.509 0 0115.825 1.5v-1zm4.508 5.509a4.509 4.509 0 01-1.32 3.188l.707.707a5.509 5.509 0 001.613-3.895h-1zm1 0A5.509 5.509 0 0015.825.5v1a4.509 4.509 0 014.508 4.509h1zM6.01 1.5c1.195 0 2.342.475 3.188 1.32l.707-.707A5.509 5.509 0 006.009.5v1zM1.5 6.009A4.509 4.509 0 016.009 1.5v-1A5.509 5.509 0 00.5 6.009h1zm1.32 3.188A4.509 4.509 0 011.5 6.009h-1c0 1.46.58 2.862 1.613 3.895l.708-.707z"/></symbol></svg>