<?xml version="1.0" encoding="utf-8"?><svg viewBox="0 0 30 23" xmlns="http://www.w3.org/2000/svg" xmlns:xlink="http://www.w3.org/1999/xlink"><style>:root>svg{display:none}:root>svg:target{display:block}</style><svg fill="none" viewBox="0 0 17 20" id="bag-icon" xmlns="http://www.w3.org/2000/svg"><path d="M2.008 8.572l-.497-.055.497.055zm-1 9l.497.056-.497-.056zm15.111 0l-.497.056.497-.056zm-1-9l.497-.055-.497.055zM1.511 8.517l-1 9 .994.11 1-9-.994-.11zM2.286 19.5h12.556v-1H2.286v1zm14.33-1.983l-1-9-.994.11 1 9 .994-.11zM13.842 6.93H3.286v1h10.556v-1zm1.774 1.588a1.786 1.786 0 00-1.774-1.588v1c.4 0 .736.3.78.699l.994-.11zM14.842 19.5a1.786 1.786 0 001.774-1.983l-.994.11a.786.786 0 01-.78.873v1zM.511 17.517A1.786 1.786 0 002.285 19.5v-1a.786.786 0 01-.781-.872l-.994-.11zm1.993-8.89a.786.786 0 01.78-.698v-1c-.909 0-1.673.684-1.774 1.588l.994.11zM5.207 5.5v-.643h-1V5.5h1zm6.714-.643V5.5h1v-.643h-1zM8.564 1.5a3.357 3.357 0 013.357 3.357h1A4.357 4.357 0 008.564.5v1zM5.207 4.857A3.357 3.357 0 018.564 1.5v-1a4.357 4.357 0 00-4.357 4.357h1z" fill="#000"/></svg><svg viewBox="0 0 28 23" id="bedroom-icon" xmlns="http://www.w3.org/2000/svg"><path d="M28 12.648a2.43 2.43 0 00-1.323-2.178c-.832-.426-1.909-.642-3.201-.642H9.425a2.81 2.81 0 00-.662-1.337L6.771 6.276c-.493-.548-1.202-.88-1.995-.937l-.358-.025a1.408 1.408 0 00-.548.072v-1.17c0-.41-.173-.781-.45-1.044.28-.335.45-.767.45-1.237A1.937 1.937 0 001.935 0 1.937 1.937 0 000 1.935c0 .47.169.902.449 1.237A1.435 1.435 0 000 4.215v17.456c0 .302.245.547.547.547h1.887a.547.547 0 00.545-.495c.065-.689.43-2.58 1.331-3.428h1.465a.547.547 0 000-1.094H1.094v-4.815h7.3v1.425c0 .843.685 1.53 1.528 1.53h16.549c.147 0 .294-.022.435-.064v1.924h-3.013H10.587a.547.547 0 100 1.094H23.69c.898.845 1.265 2.738 1.331 3.428.027.28.262.495.545.495h1.887a.547.547 0 00.547-.547v-9.023zM3.871 7.174c.008-.233-.024-.473.168-.645.193-.172.425-.116.66-.099.516.037.952.236 1.259.578L7.95 9.223c.323.359.478.859.436 1.409-.016.211-.012.399-.19.548-.163.136-.34.11-.536.105-.55-.017-1.032-.223-1.355-.582L4.313 8.488c-.323-.359-.459-.838-.442-1.314zm-2.777 4.119V4.215c0-.19.155-.345.345-.345h.991c.19 0 .346.155.346.345v7.077H1.094zM3.87 9.63l1.495 1.662H3.87V9.63zM1.935 1.094a.842.842 0 010 1.682.842.842 0 010-1.682zm.023 20.03h-.864v-2.83h1.834c-.592.97-.86 2.168-.97 2.83zm7.964-6.877a.436.436 0 01-.435-.436v-2.889h13.989c1.117 0 2.027.176 2.703.521.449.23.727.691.727 1.205v1.163c0 .24-.195.436-.435.436H9.922zm16.12 6.877c-.11-.662-.378-1.86-.97-2.83h1.834v2.83h-.864z"/><path d="M8.686 17.539a.552.552 0 00-.714-.296.551.551 0 00-.296.714c.114.275.439.41.714.296a.552.552 0 00.296-.714z"/></svg><svg fill="none" viewBox="0 0 20 20" id="cart-icon" xmlns="http://www.w3.org/2000/svg"><path d="M2.008 8.572l-.497-.055.497.055zm-1 9l.497.056-.497-.056zm15.111 0l-.497.056.497-.056zm-1-9l.497-.055-.497.055zM1.511 8.517l-1 9 .994.11 1-9-.994-.11zM2.286 19.5h12.556v-1H2.286v1zm14.33-1.983l-1-9-.994.11 1 9 .994-.11zM13.842 6.93H3.286v1h10.556v-1zm1.774 1.588a1.786 1.786 0 00-1.774-1.588v1c.4 0 .736.3.78.699l.994-.11zM14.842 19.5a1.786 1.786 0 001.774-1.983l-.994.11a.786.786 0 01-.78.873v1zM.511 17.517A1.786 1.786 0 002.285 19.5v-1a.786.786 0 01-.781-.872l-.994-.11zm1.993-8.89a.786.786 0 01.78-.698v-1c-.909 0-1.673.684-1.774 1.588l.994.11zM5.207 5.5v-.643h-1V5.5h1zm6.714-.643V5.5h1v-.643h-1zM8.564 1.5a3.357 3.357 0 013.357 3.357h1A4.357 4.357 0 008.564.5v1zM5.207 4.857A3.357 3.357 0 018.564 1.5v-1a4.357 4.357 0 00-4.357 4.357h1z" fill="#000"/><circle cx="16" cy="5" r="4" fill="#D74444"/></svg><svg viewBox="0 0 23 22" id="childrensroom-icon" xmlns="http://www.w3.org/2000/svg"><path d="M22.772 18.326a.644.644 0 00-.908-.012l-.002.002-.002-.002.004-.003c-.002.002-.079.073-.24.19V8.461a.644.644 0 10-1.288 0V9.1c-2.301-.053-3.486-.384-4.635-.705-1.06-.297-2.061-.577-3.744-.577-1.683 0-2.685.28-3.745.577-1.148.321-2.333.652-4.634.705V5.883c0-2.312 1.054-3.887 2.968-4.434a4.122 4.122 0 014.62 1.764c-.234.116-.433.24-.595.373l-.736-.736a.645.645 0 10-.912.911l.833.833-.833.834a.645.645 0 10.912.911l.736-.736c.222.181.512.347.87.497.609.256 1.334.428 1.805.428a1.936 1.936 0 001.934-1.934 1.936 1.936 0 00-1.934-1.933 3.86 3.86 0 00-.84.115A5.41 5.41 0 006.192.21C3.712.918 2.29 2.986 2.29 5.883v12.618a2.68 2.68 0 01-.24-.19l.004.003-.001.002-.002-.002a.645.645 0 00-.9.923c.056.056.787.752 2.49 1.428C5.346 21.343 8.019 22 11.958 22c3.938 0 6.612-.657 8.316-1.335 1.704-.676 2.435-1.372 2.491-1.428a.644.644 0 00.008-.911zM12.108 4.21c.46-.17.921-.26 1.138-.26a.645.645 0 010 1.289c-.217 0-.677-.09-1.138-.26-.4-.15-.624-.294-.733-.385.109-.09.334-.235.733-.384zm-8.53 6.178c2.486-.055 3.807-.424 4.982-.753 1.014-.284 1.89-.529 3.397-.529 1.506 0 2.382.245 3.397.53 1.175.328 2.495.697 4.982.752v6.452H3.578v-6.452zm0 7.741h16.758v1.104c-2.451 1.127-5.66 1.474-8.38 1.474-2.719 0-5.927-.347-8.378-1.474V18.13z"/><path d="M6.8 15.551a.645.645 0 00.645-.644v-2.578a.644.644 0 10-1.29 0v2.578c0 .356.29.644.645.644zM9.378 15.551a.645.645 0 00.645-.644v-2.578a.644.644 0 10-1.29 0v2.578c0 .356.29.644.645.644zM11.956 15.551a.645.645 0 00.645-.644v-2.578a.644.644 0 10-1.29 0v2.578c0 .356.29.644.645.644zM14.534 15.551a.645.645 0 00.645-.644v-2.578a.644.644 0 10-1.29 0v2.578c0 .356.29.644.646.644zM17.113 15.551a.644.644 0 00.644-.644v-2.578a.644.644 0 10-1.289 0v2.578c0 .356.289.644.645.644z"/></svg><svg viewBox="0 0 22 22" id="closet-icon" xmlns="http://www.w3.org/2000/svg"><path d="M21.27 0H.645a.645.645 0 000 1.29h.042v20.066a.645.645 0 001.29 0v-.387h17.96v.386a.645.645 0 001.29 0V1.29h.043a.645.645 0 100-1.289zm-9.668 13.363h8.335v2.492h-8.335v-2.492zm8.335-1.289h-8.335V9.582h8.335v2.492zm-9.625 7.606H6.79V1.29h3.524v18.39zM1.977 1.29H5.5v18.39H1.977V1.29zm9.625 18.39v-2.535h8.335v2.535h-8.335zm8.335-11.387h-8.335V1.289h8.335v7.004z"/><path d="M8.55 11.645a.644.644 0 100-1.29.644.644 0 000 1.29zM3.738 11.645a.645.645 0 100-1.29.645.645 0 000 1.29z"/></svg><svg viewBox="0 0 3 16" id="etc-icon" xmlns="http://www.w3.org/2000/svg"><path d="M1.636 2.273a.636.636 0 110-1.273.636.636 0 010 1.273zM1.636 8.636a.636.636 0 110-1.272.636.636 0 010 1.272zM1.636 15a.636.636 0 110-1.273.636.636 0 010 1.273z"/></svg><svg viewBox="0 0 23 23" id="kitchen-icon" xmlns="http://www.w3.org/2000/svg"><path d="M11.5 0v12.938H0V23h23V0H11.5zm0 21.563H1.437v-7.188H11.5v7.188zm10.063 0h-8.625V7.188h8.624v14.375zm0-15.813h-8.625V1.437h8.624V5.75z"/><path d="M10.063 4.734L8.624 3.296V0H7.187v3.891L8.626 5.33v.421h-5.75v-.421L4.313 3.89V0H2.875v3.296L1.437 4.734v2.454h8.626V4.733zM8.625 15.813H4.312v1.437h4.313v-1.438zM15.813 2.875h-1.438v1.438h1.438V2.875zM15.813 10.063h-1.438v4.312h1.438v-4.313zM2.875 8.625H1.437v1.438h1.438V8.624zM6.469 8.625H5.03v1.438H6.47V8.624zM10.063 8.625H8.624v1.438h1.438V8.624z"/></svg><svg viewBox="0 0 30 23" id="livingroom-icon" xmlns="http://www.w3.org/2000/svg"><path d="M29.531 15.938h-1.406v-2.813h.938a.469.469 0 00.462-.546l-.47-2.812a.469.469 0 00-.461-.392h-1.875a.469.469 0 00-.462.392l-.47 2.812a.469.469 0 00.463.546h.938v2.813h-1.875a.393.393 0 00-.047.009 2.347 2.347 0 00-2.297-1.884h-.938v-1.407c0-.776-.63-1.406-1.406-1.406h-3.75c-.777 0-1.406.63-1.406 1.406v1.406h-.938v-1.406c0-.776-.63-1.406-1.406-1.406h-3.75c-.777 0-1.406.63-1.406 1.406v1.406H7.03a2.347 2.347 0 00-2.297 1.885.392.392 0 00-.046-.01H2.813v-2.812h.937a.469.469 0 00.462-.546l-.469-2.812a.469.469 0 00-.462-.392H1.406a.469.469 0 00-.462.392l-.469 2.812a.469.469 0 00.463.546h.937v2.813H.469a.469.469 0 00-.469.468v5.157c0 .258.21.468.469.468H29.53c.26 0 .469-.21.469-.468v-5.157a.469.469 0 00-.469-.468zm-28.04-3.75l.312-1.876h1.081l.312 1.876H1.491zm2.728 8.906H.937v-4.219H4.22v4.219zm12.187-8.438c0-.259.21-.469.469-.469h3.75c.259 0 .469.21.469.47v1.405h-4.688v-1.406zm-7.5 0c0-.259.21-.469.469-.469h3.75c.259 0 .469.21.469.47v1.405H8.906v-1.406zm15.469 8.438H5.625v-1.407h18.75v1.407zm0-2.344H5.625v-2.344c0-.776.63-1.406 1.406-1.406H22.97c.776 0 1.406.63 1.406 1.406v2.344zm2.429-6.563l.312-1.874h1.08l.313 1.874h-1.705zm2.259 8.907H25.78v-4.219h3.282v4.219zM9.375 8.438h10.313c.258 0 .468-.21.468-.47v-7.5A.469.469 0 0019.688 0H9.374a.469.469 0 00-.469.469v7.5c0 .259.21.468.469.468zm.469-7.5h9.375v4.756l-1.04-1.3a.47.47 0 00-.698-.039L15.937 5.9l-2.95-2.95a.469.469 0 00-.635-.025l-2.508 2.15V.937zm0 5.37l2.787-2.39 2.975 2.974c.183.183.48.183.663 0l1.505-1.504 1.445 1.808V7.5H9.844V6.309z"/><path d="M16.406 4.219a1.406 1.406 0 100-2.813 1.406 1.406 0 000 2.813zm0-1.875a.469.469 0 110 .937.469.469 0 010-.937z"/></svg><svg viewBox="0 0 22 22" id="new-icon" xmlns="http://www.w3.org/2000/svg"><path fill-rule="evenodd" clip-rule="evenodd" d="M20.733 9.362l.016.011C21.335 9.803 22 10.295 22 11c0 .704-.665 1.194-1.25 1.625-.339.247-.762.56-.817.766.02.397.13.784.325 1.13l.009.02c.295.68.597 1.377.255 1.965-.345.594-1.12.681-1.87.765-.388.003-.77.093-1.118.265-.172.348-.263.73-.266 1.118-.084.75-.181 1.532-.77 1.871-.59.34-1.3.034-1.984-.265a2.58 2.58 0 00-1.123-.329c-.2.052-.503.462-.751.799l-.014.019-.001.001c-.431.585-.92 1.248-1.625 1.248-.706 0-1.195-.663-1.626-1.248v-.001c-.248-.339-.56-.761-.766-.817a2.626 2.626 0 00-1.13.325l-.017.008c-.68.296-1.379.6-1.968.256-.594-.346-.68-1.12-.765-1.87a2.547 2.547 0 00-.266-1.122 2.547 2.547 0 00-1.118-.267c-.75-.079-1.528-.175-1.87-.765-.342-.59-.034-1.3.264-1.984.195-.344.307-.728.329-1.122-.05-.2-.465-.506-.8-.754l-.017-.011c-.586-.43-1.25-.92-1.25-1.627 0-.705.664-1.195 1.25-1.626.338-.246.76-.558.816-.765a2.56 2.56 0 00-.33-1.125c-.301-.686-.605-1.396-.26-1.99.346-.594 1.122-.681 1.872-.765a2.555 2.555 0 001.114-.262 2.56 2.56 0 00.266-1.118c.084-.754.182-1.535.77-1.875.589-.34 1.299-.038 1.987.265.345.193.729.305 1.123.329.2-.052.503-.462.751-.798l.014-.02.001-.001C9.805.663 10.294 0 11 0c.703 0 1.19.657 1.623 1.24l.006.01c.248.338.559.76.765.816a2.568 2.568 0 001.123-.33c.685-.301 1.396-.605 1.99-.258.594.346.68 1.12.765 1.87.002.39.093.773.266 1.122.347.173.73.264 1.118.266.749.08 1.527.176 1.87.766.342.59.034 1.3-.264 1.984a2.56 2.56 0 00-.33 1.122c.052.2.466.506.802.754zM7.747 13.199a.478.478 0 00.861-.287V9.087a.478.478 0 00-.956 0v2.39L5.643 8.8a.478.478 0 00-.86.287v3.825a.478.478 0 00.956 0v-2.39l2.008 2.677zm4.209.192h-1.913a.478.478 0 01-.478-.479V9.087c0-.265.214-.479.478-.479h1.913a.478.478 0 010 .957H10.52v.956h1.435a.478.478 0 010 .957H10.52v.956h1.435a.478.478 0 010 .957zm4.328-.327a.478.478 0 00.454.327l.02-.001a.478.478 0 00.445-.362l.957-3.826a.479.479 0 00-.93-.231l-.557 2.232-.437-1.311a.498.498 0 00-.908 0l-.437 1.311-.557-2.232a.479.479 0 10-.929.231l.956 3.826a.478.478 0 00.446.362.457.457 0 00.473-.326l.502-1.509.502 1.509z"/></svg><svg viewBox="0 0 23 22" id="office-icon" xmlns="http://www.w3.org/2000/svg"><path d="M22.313 10.398h-.992c.22-.38.347-.82.347-1.289V7.176a.645.645 0 00-.645-.645h-1.22c.371-1.73 2.132-2.677 2.162-2.693a.645.645 0 00-.593-1.145 6.374 6.374 0 00-1.638 1.302V1.977a.645.645 0 00-1.289 0v2.018a6.372 6.372 0 00-1.637-1.302.645.645 0 10-.592 1.145c.02.01 1.791.946 2.162 2.693h-1.222a.645.645 0 00-.644.645v1.933c0 .47.126.91.347 1.29h-5.793l-.644-1.29h2.867a.645.645 0 00.645-.644V.645A.645.645 0 0013.289 0H2.891a.645.645 0 00-.645.645v7.82c0 .356.289.644.645.644h2.867l-.645 1.29H1.602a.645.645 0 000 1.289h.644v9.667a.645.645 0 001.29 0v-1.933h9.109v1.933c0 .356.288.645.644.645h7.734a.645.645 0 00.645-.645v-9.668h.645a.644.644 0 100-1.289zM17.8 9.11V7.82h2.578v1.29a1.29 1.29 0 01-1.29 1.288 1.29 1.29 0 01-1.288-1.289zM3.535 1.29h9.11V7.82h-9.11V1.29zM7.2 9.11h1.782l.644 1.29h-3.07l.644-1.29zm-3.664 9.024v-6.445h9.11v6.445h-9.11zm10.399-1.29h6.445v3.868h-6.445v-3.867zm6.445-1.288h-6.445v-3.867h6.445v3.867z"/><path d="M17.156 14.266a.645.645 0 100-1.29.645.645 0 000 1.29zM17.156 19.422a.645.645 0 100-1.29.645.645 0 000 1.29z"/></svg><svg fill="none" viewBox="0 0 15 20" id="profile-icon" xmlns="http://www.w3.org/2000/svg"><path clip-rule="evenodd" d="M11.292 4.857a3.858 3.858 0 01-3.86 3.857 3.858 3.858 0 110-7.714 3.858 3.858 0 013.86 3.857zM13.866 19H1v-2.57a3.86 3.86 0 013.86-3.859h5.146a3.86 3.86 0 013.86 3.86V19z" stroke="#000" stroke-linecap="square"/></svg><svg viewBox="0 0 15 15" id="rating-icon" xmlns="http://www.w3.org/2000/svg"><path d="M7.948.279a.5.5 0 00-.896 0L5.005 4.426l-4.577.665a.5.5 0 00-.277.853l3.312 3.228-.782 4.559a.5.5 0 00.725.527L7.5 12.105l4.094 2.153a.5.5 0 00.725-.527l-.782-4.56 3.312-3.227a.5.5 0 00-.277-.853l-4.577-.665L7.948.28z"/></svg><svg viewBox="0 0 19 19" id="sale-icon" xmlns="http://www.w3.org/2000/svg"><path d="M6.464 7.071H7.68m3.642 4.858h1.215m0-5.465l-6.072 6.072M8.652 1.35L7.28 2.722a1.2 1.2 0 01-.848.352h-2.16a1.2 1.2 0 00-1.2 1.2v2.159a1.2 1.2 0 01-.35.848L1.35 8.65a1.2 1.2 0 000 1.697l1.371 1.371a1.2 1.2 0 01.352.848v2.16a1.2 1.2 0 001.2 1.2h2.159a1.2 1.2 0 01.848.35l1.37 1.372a1.2 1.2 0 001.697 0l1.371-1.371a1.2 1.2 0 01.848-.352h2.16a1.2 1.2 0 001.2-1.2v-2.159a1.2 1.2 0 01.35-.848l1.372-1.37a1.2 1.2 0 000-1.697L16.278 7.28a1.2 1.2 0 01-.352-.848v-2.16a1.2 1.2 0 00-1.2-1.2h-2.159a1.2 1.2 0 01-.848-.35L10.35 1.35a1.2 1.2 0 00-1.697 0z"/></svg><svg fill="none" viewBox="0 0 19 11" id="sort-by-icon" xmlns="http://www.w3.org/2000/svg"><path fill-rule="evenodd" clip-rule="evenodd" d="M0 1.222h18.333V0H0v1.222zm11 4.89h7.333V4.888H11V6.11zM7.333 11h11V9.778h-11V11z" fill="#000"/></svg><svg viewBox="0 0 22 19" id="wishlist-icon" xmlns="http://www.w3.org/2000/svg"><path d="M10.917 18l-.354.354a.5.5 0 00.707 0L10.917 18zm-8.45-8.45l-.354.354.354-.354zM9.55 2.467l-.353.354.353-.354zm1.367 1.366l-.354.354a.5.5 0 00.707 0l-.353-.354zm1.366-1.366l-.354-.354.354.354zm-1.013 15.18l-8.45-8.45-.707.707 8.45 8.45.707-.708zm7.743-8.45l-8.45 8.45.707.707 8.45-8.45-.707-.707zM9.197 2.82l1.366 1.366.707-.707-1.366-1.367-.707.708zm2.073 1.366l1.367-1.366-.708-.708-1.366 1.367.707.707zM15.825.5c-1.461 0-2.862.58-3.896 1.613l.707.708A4.509 4.509 0 0115.825 1.5v-1zm4.508 5.509a4.509 4.509 0 01-1.32 3.188l.707.707a5.509 5.509 0 001.613-3.895h-1zm1 0A5.509 5.509 0 0015.825.5v1a4.509 4.509 0 014.508 4.509h1zM6.01 1.5c1.195 0 2.342.475 3.188 1.32l.707-.707A5.509 5.509 0 006.009.5v1zM1.5 6.009A4.509 4.509 0 016.009 1.5v-1A5.509 5.509 0 00.5 6.009h1zm1.32 3.188A4.509 4.509 0 011.5 6.009h-1c0 1.46.58 2.862 1.613 3.895l.708-.707z"/></svg></svg>